<svg width="3302" height="987" viewBox="0 0 3302 987" fill="none" xmlns="http://www.w3.org/2000/svg">
<rect width="3302" height="987" fill="white"/>
<path d="M1017.29 652V420.864H1069.95L1075.07 452.086C1082.53 440.902 1092.32 432.048 1104.43 425.524C1116.86 418.689 1131.15 415.272 1147.3 415.272C1183.03 415.272 1208.35 429.097 1223.26 456.746C1231.65 444.009 1242.83 433.912 1256.81 426.456C1271.1 419 1286.64 415.272 1303.41 415.272C1333.55 415.272 1356.69 424.281 1372.85 442.3C1389 460.319 1397.08 486.725 1397.08 521.52V652H1337.43V527.112C1337.43 507.229 1333.55 492.007 1325.78 481.444C1318.33 470.881 1306.68 465.6 1290.83 465.6C1274.68 465.6 1261.63 471.503 1251.69 483.308C1242.06 495.113 1237.24 511.579 1237.24 532.704V652H1177.59V527.112C1177.59 507.229 1173.71 492.007 1165.94 481.444C1158.18 470.881 1146.22 465.6 1130.06 465.6C1114.22 465.6 1101.33 471.503 1091.38 483.308C1081.75 495.113 1076.94 511.579 1076.94 532.704V652H1017.29ZM1564.62 657.592C1542.25 657.592 1522.06 652.466 1504.04 642.214C1486.33 631.962 1472.19 617.827 1461.63 599.808C1451.38 581.479 1446.25 560.353 1446.25 536.432C1446.25 512.511 1451.54 491.541 1462.1 473.522C1472.66 455.193 1486.8 440.902 1504.5 430.65C1522.52 420.398 1542.72 415.272 1565.08 415.272C1587.14 415.272 1607.02 420.398 1624.73 430.65C1642.75 440.902 1656.89 455.193 1667.14 473.522C1677.7 491.541 1682.98 512.511 1682.98 536.432C1682.98 560.353 1677.7 581.479 1667.14 599.808C1656.89 617.827 1642.75 631.962 1624.73 642.214C1606.71 652.466 1586.68 657.592 1564.62 657.592ZM1564.62 605.866C1580.15 605.866 1593.67 600.119 1605.16 588.624C1616.65 576.819 1622.4 559.421 1622.4 536.432C1622.4 513.443 1616.65 496.201 1605.16 484.706C1593.67 472.901 1580.31 466.998 1565.08 466.998C1549.24 466.998 1535.57 472.901 1524.08 484.706C1512.89 496.201 1507.3 513.443 1507.3 536.432C1507.3 559.421 1512.89 576.819 1524.08 588.624C1535.57 600.119 1549.08 605.866 1564.62 605.866ZM1736.31 652V420.864H1788.97L1793.63 460.008C1800.78 446.339 1811.03 435.465 1824.39 427.388C1838.06 419.311 1854.06 415.272 1872.39 415.272C1900.97 415.272 1923.18 424.281 1939.02 442.3C1954.87 460.319 1962.79 486.725 1962.79 521.52V652H1903.14V527.112C1903.14 507.229 1899.1 492.007 1891.03 481.444C1882.95 470.881 1870.37 465.6 1853.28 465.6C1836.5 465.6 1822.68 471.503 1811.81 483.308C1801.24 495.113 1795.96 511.579 1795.96 532.704V652H1736.31ZM2115.36 657.592C2094.85 657.592 2076.83 654.33 2061.3 647.806C2045.77 640.971 2033.34 631.651 2024.02 619.846C2014.7 608.041 2009.11 594.371 2007.25 578.838H2067.36C2069.22 587.847 2074.19 595.614 2082.27 602.138C2090.66 608.351 2101.38 611.458 2114.43 611.458C2127.47 611.458 2136.95 608.817 2142.85 603.536C2149.06 598.255 2152.17 592.197 2152.17 585.362C2152.17 575.421 2147.82 568.741 2139.12 565.324C2130.42 561.596 2118.31 558.023 2102.78 554.606C2092.83 552.431 2082.74 549.791 2072.49 546.684C2062.23 543.577 2052.76 539.694 2044.06 535.034C2035.67 530.063 2028.84 523.85 2023.56 516.394C2018.27 508.627 2015.63 499.152 2015.63 487.968C2015.63 467.464 2023.71 450.222 2039.87 436.242C2056.33 422.262 2079.32 415.272 2108.83 415.272C2136.17 415.272 2157.92 421.641 2174.07 434.378C2190.54 447.115 2200.32 464.668 2203.43 487.036H2147.05C2143.63 469.949 2130.74 461.406 2108.37 461.406C2097.18 461.406 2088.48 463.581 2082.27 467.93C2076.37 472.279 2073.42 477.716 2073.42 484.24C2073.42 491.075 2077.92 496.511 2086.93 500.55C2095.94 504.589 2107.9 508.317 2122.81 511.734C2138.97 515.462 2153.72 519.656 2167.08 524.316C2180.75 528.665 2191.63 535.345 2199.7 544.354C2207.78 553.053 2211.82 565.635 2211.82 582.1C2212.13 596.391 2208.4 609.283 2200.64 620.778C2192.87 632.273 2181.68 641.282 2167.08 647.806C2152.48 654.33 2135.24 657.592 2115.36 657.592ZM2360.36 652C2336.13 652 2316.72 646.097 2302.11 634.292C2287.51 622.487 2280.21 601.517 2280.21 571.382V470.726H2240.6V420.864H2280.21L2287.2 358.886H2339.86V420.864H2402.3V470.726H2339.86V571.848C2339.86 583.032 2342.19 590.799 2346.85 595.148C2351.82 599.187 2360.21 601.206 2372.01 601.206H2400.91V652H2360.36ZM2559.91 657.592C2536.61 657.592 2515.95 652.621 2497.93 642.68C2479.91 632.739 2465.77 618.759 2455.52 600.74C2445.27 582.721 2440.14 561.907 2440.14 538.296C2440.14 514.375 2445.12 493.094 2455.06 474.454C2465.31 455.814 2479.29 441.368 2497 431.116C2515.02 420.553 2536.14 415.272 2560.37 415.272C2583.05 415.272 2603.09 420.243 2620.49 430.184C2637.88 440.125 2651.4 453.795 2661.03 471.192C2670.97 488.279 2675.94 507.385 2675.94 528.51C2675.94 531.927 2675.79 535.5 2675.47 539.228C2675.47 542.956 2675.32 546.839 2675.01 550.878H2499.33C2500.57 568.897 2506.78 583.032 2517.97 593.284C2529.46 603.536 2543.29 608.662 2559.44 608.662C2571.56 608.662 2581.65 606.021 2589.73 600.74C2598.12 595.148 2604.33 588.003 2608.37 579.304H2668.95C2664.6 593.905 2657.3 607.264 2647.05 619.38C2637.11 631.185 2624.68 640.505 2609.77 647.34C2595.17 654.175 2578.55 657.592 2559.91 657.592ZM2560.37 463.736C2545.77 463.736 2532.88 467.93 2521.69 476.318C2510.51 484.395 2503.37 496.822 2500.26 513.598H2615.36C2614.43 498.375 2608.84 486.259 2598.58 477.25C2588.33 468.241 2575.6 463.736 2560.37 463.736ZM2726.11 652V420.864H2779.23L2784.82 464.202C2793.21 449.29 2804.55 437.485 2818.84 428.786C2833.44 419.777 2850.53 415.272 2870.1 415.272V478.182H2853.33C2840.28 478.182 2828.63 480.201 2818.38 484.24C2808.12 488.279 2800.05 495.269 2794.14 505.21C2788.55 515.151 2785.76 528.976 2785.76 546.684V652H2726.11ZM2990.56 657.592C2970.67 657.592 2954.36 654.485 2941.63 648.272C2928.89 641.748 2919.41 633.205 2913.2 622.642C2906.99 612.079 2903.88 600.429 2903.88 587.692C2903.88 566.256 2912.27 548.859 2929.04 535.5C2945.82 522.141 2970.98 515.462 3004.54 515.462H3063.25V509.87C3063.25 494.026 3058.75 482.376 3049.74 474.92C3040.73 467.464 3029.54 463.736 3016.19 463.736C3004.07 463.736 2993.51 466.687 2984.5 472.59C2975.49 478.182 2969.9 486.57 2967.72 497.754H2909.47C2911.03 480.978 2916.62 466.377 2926.25 453.95C2936.19 441.523 2948.93 432.048 2964.46 425.524C2979.99 418.689 2997.39 415.272 3016.65 415.272C3049.58 415.272 3075.52 423.505 3094.47 439.97C3113.42 456.435 3122.9 479.735 3122.9 509.87V652H3072.11L3066.51 614.72C3059.68 627.147 3050.05 637.399 3037.62 645.476C3025.51 653.553 3009.82 657.592 2990.56 657.592ZM3004.07 610.992C3021.16 610.992 3034.36 605.4 3043.68 594.216C3053.31 583.032 3059.37 569.207 3061.85 552.742H3011.06C2995.22 552.742 2983.88 555.693 2977.04 561.596C2970.21 567.188 2966.79 574.178 2966.79 582.566C2966.79 591.575 2970.21 598.565 2977.04 603.536C2983.88 608.507 2992.89 610.992 3004.07 610.992Z" fill="#00DBAA"/>
<path d="M377 260C248.318 260 144 364.318 144 493L144 726V726C272.682 726 377 621.682 377 493L377 260V260Z" fill="#00DBAA" fill-opacity="0.55"/>
<path d="M610 260C481.318 260 377 364.318 377 493L377 726V726C505.682 726 610 621.682 610 493L610 260V260Z" fill="#00DBAA" fill-opacity="0.89"/>
<path d="M843 260C714.318 260 610 364.318 610 493L610 726V726C738.682 726 843 621.682 843 493L843 260V260Z" fill="#00DBAA"/>
</svg>
